<?xml version="1.0" encoding="UTF-8" standalone="no"?><!-- Generator: Gravit.io --><svg xmlns="http://www.w3.org/2000/svg" xmlns:xlink="http://www.w3.org/1999/xlink" style="isolation:isolate" viewBox="28.148 4.326 162 162" width="162pt" height="162pt"><defs><clipPath id="_clipPath_5ShoB4ahGAHivaQQhgAz4CUrDnph7AlB"><rect x="28.148" y="4.326" width="162" height="162"/></clipPath></defs><g clip-path="url(#_clipPath_5ShoB4ahGAHivaQQhgAz4CUrDnph7AlB)"><circle vector-effect="non-scaling-stroke" cx="109.66666666666667" cy="84.99999999999997" r="78.49999999999997" fill="rgb(141,198,191)"/><path d=" M 79.5 57.988 Q 76.75 44.974 83.5 40.558 C 90.25 36.142 96.5 33.586 107 35.213 C 117.5 36.839 127 37.769 133.25 47.298 C 139.5 56.826 149 65.193 149.5 94.941 Q 150 124.688 147.25 154.436 L 121.5 162.338 L 92.75 163.5 Q 98.25 129.104 98 123.759 Q 97.75 118.414 79.5 57.988 Z " fill="rgb(255,240,207)" vector-effect="non-scaling-stroke" stroke-width="1" stroke="rgb(0,0,0)" stroke-linejoin="miter" stroke-linecap="square" stroke-miterlimit="3"/><path d=" M 83.931 63.781 Q 84.569 64.004 82.807 78.388 Q 78.247 77.62 77.484 77.24 C 76.721 76.86 74.241 63.778 74.723 63.393 C 75.206 63.009 83.293 63.557 83.931 63.781 Z " fill="none" vector-effect="non-scaling-stroke" stroke-width="1" stroke="rgb(0,0,0)" stroke-linejoin="miter" stroke-linecap="square" stroke-miterlimit="3"/><g><path d=" M 53.685 103.366 C 57.142 95.666 55.142 97.138 65.31 90.611 C 75.479 84.084 80.369 76.095 82.836 74.661 C 85.303 73.228 92.934 71.815 97.475 76.493 C 102.017 81.171 97.366 83.447 98.978 86.652 C 100.59 89.858 104.989 101.897 102.972 103.572 C 100.954 105.247 80.432 106.408 78.732 107.086 C 77.032 107.764 50.227 111.065 53.685 103.366 Z " fill="rgb(232,152,151)" vector-effect="non-scaling-stroke" stroke-width="1" stroke="rgb(0,0,0)" stroke-linejoin="miter" stroke-linecap="square" stroke-miterlimit="3"/><path d=" M 99.453 88.574 Q 85.719 101.633 53.972 105.461" fill="none" vector-effect="non-scaling-stroke" stroke-width="1" stroke="rgb(0,0,0)" stroke-linejoin="miter" stroke-linecap="square" stroke-miterlimit="3"/></g><circle vector-effect="non-scaling-stroke" cx="109.14843750000004" cy="85.32552083333337" r="78.49999999999997" fill="none"/><g style="isolation: isolate;"><circle vector-effect="non-scaling-stroke" cx="109.14843750000004" cy="85.32552083333337" r="78.49999999999997" fill="none" stroke-width="5" stroke="rgb(0,0,0)" stroke-linejoin="miter" stroke-linecap="square" stroke-miterlimit="3"/><circle vector-effect="non-scaling-stroke" cx="109.14843750000004" cy="85.32552083333337" r="78.49999999999997" fill="none" stroke-width="4" stroke="rgb(252,188,101)" stroke-linejoin="miter" stroke-linecap="square" stroke-miterlimit="3"/></g><path d=" M 124.25 55.497 L 76 57 Q 80.165 31.75 100.993 31.75 Q 121.82 31.75 124.25 55.497 Z " fill="rgb(194,132,94)" vector-effect="non-scaling-stroke" stroke-width="1" stroke="rgb(0,0,0)" stroke-linejoin="miter" stroke-linecap="square" stroke-miterlimit="3"/><circle vector-effect="non-scaling-stroke" cx="110.00000000000004" cy="71" r="4.5" fill="rgb(0,0,0)"/><g><path d=" M 95.937 63.941 C 96.05 66.061 100.339 80 104.361 80.351 C 108.384 80.702 117.077 81.33 118.802 80.351 C 120.526 79.372 120.456 65.085 120.607 63.309 C 120.757 61.534 95.825 61.82 95.937 63.941 Z " fill="none" vector-effect="non-scaling-stroke" stroke-width="1" stroke="rgb(0,0,0)" stroke-linejoin="miter" stroke-linecap="square" stroke-miterlimit="3"/><line x1="121.359" y1="63.797" x2="142.5" y2="63.313" vector-effect="non-scaling-stroke" stroke-width="2" stroke="rgb(0,0,0)" stroke-linejoin="miter" stroke-linecap="square" stroke-miterlimit="3"/><path d=" M 84.514 64.063 L 95.876 63.688 Q 96.113 65.516 96.313 65.867 C 96.512 66.219 85.265 65.094 84.466 66.57 Q 83.666 68.047 84.514 64.063 Z " fill="rgb(0,0,0)" vector-effect="non-scaling-stroke" stroke-width="1" stroke="rgb(0,0,0)" stroke-linejoin="miter" stroke-linecap="square" stroke-miterlimit="3"/></g></g></svg>